<?xml version="1.0" encoding="UTF-8" standalone="no"?>
<svg
   xmlns:dc="http://purl.org/dc/elements/1.1/"
   xmlns:cc="http://creativecommons.org/ns#"
   xmlns:rdf="http://www.w3.org/1999/02/22-rdf-syntax-ns#"
   xmlns:svg="http://www.w3.org/2000/svg"
   xmlns="http://www.w3.org/2000/svg"
   xmlns:sodipodi="http://sodipodi.sourceforge.net/DTD/sodipodi-0.dtd"
   xmlns:inkscape="http://www.inkscape.org/namespaces/inkscape"
   height="103.44547"
   width="117.4071"
   id="svg2"
   xml:space="preserve"
   enable-background="new 0 0 128 128"
   viewBox="0 0 117.40711 103.44547"
   y="0px"
   x="0px"
   version="1.1"
   inkscape:version="0.91 r13725"
   sodipodi:docname="communication.svg"><sodipodi:namedview
     pagecolor="#ffffff"
     bordercolor="#666666"
     borderopacity="1"
     objecttolerance="10"
     gridtolerance="10"
     guidetolerance="10"
     inkscape:pageopacity="0"
     inkscape:pageshadow="2"
     inkscape:window-width="900"
     inkscape:window-height="575"
     id="namedview10"
     showgrid="false"
     inkscape:zoom="2.2813952"
     inkscape:cx="58.703548"
     inkscape:cy="51.722736"
     inkscape:window-x="0"
     inkscape:window-y="0"
     inkscape:window-maximized="0"
     inkscape:current-layer="svg2" /><metadata
     id="metadata88"><rdf:RDF><cc:Work
         rdf:about=""><dc:format>image/svg+xml</dc:format><dc:type
           rdf:resource="http://purl.org/dc/dcmitype/StillImage" /><dc:title /></cc:Work></rdf:RDF></metadata><defs
     id="defs86" /><g
     transform="translate(-6.9585786,-0.55452965)"
     id="g4"><path
       style="fill:#000000;fill-opacity:1"
       id="path6"
       d="m 7.6,104 53.8,0 c 0.2,0 0.5,-0.1 0.6,-0.3 0.1,-0.2 0.2,-0.4 0.1,-0.7 L 60,96 c -0.1,-0.3 -0.2,-0.6 -0.3,-0.9 -0.6,-1.5 -1.5,-2.8 -2.6,-3.9 -0.8,-0.8 -1.8,-1.5 -2.9,-2 -1.4,-0.7 -2.9,-1.1 -4.6,-1.3 -0.9,-0.1 -1.8,-0.1 -2.7,0 -1.3,0.1 -2.7,0.2 -4,0.2 -0.5,-1 -1.5,-3.9 0.1,-8 2,-1.8 3.6,-4.3 4.6,-7.2 1.6,-0.1 2.8,-2.4 2.8,-5.5 0,-2.5 -0.8,-4.5 -1.9,-5.2 0.2,-1.6 0.4,-3.3 0.5,-5 0.5,-7.5 -1.5,-8.4 -5.3,-9.6 -0.3,-0.1 -0.6,-0.2 -0.9,-0.3 -3,-1 -6.1,-1.2 -8.2,-1.2 -3,0 -5.8,0.4 -8.2,1.2 -0.3,0.1 -0.6,0.2 -0.9,0.3 -3.8,1.2 -5.8,2.1 -5.3,9.6 0.1,1.7 0.3,3.4 0.5,5 -1.2,0.7 -1.9,2.7 -1.9,5.2 0,3.1 1.2,5.4 2.8,5.5 0.8,2.4 2.1,4.6 3.6,6.2 0,0 0,0.1 0,0.1 2,5.1 0,8.5 -0.1,8.7 0,0 0,0.1 0,0.1 -1,0 -1.9,-0.1 -2.9,-0.2 -6.3,-0.5 -11.4,2.7 -13.1,8.1 -0.7,2.2 -1.4,4.5 -2.1,7 -0.1,0.2 0,0.5 0.1,0.7 0.1,0.3 0.3,0.4 0.5,0.4 z M 41.8,89.3 c -1.3,2.4 -2.1,3.4 -3.2,4.7 -0.2,0.3 -0.4,0.5 -0.7,0.8 l 0.6,0.5 -0.6,-0.4 c -0.9,1 -2.2,1.6 -3.5,1.6 0,0 0,0 0,0 -1.4,0 -2.7,-0.6 -3.5,-1.7 -1.4,-1.7 -2.7,-3.8 -3.9,-6.2 0,-0.1 -0.1,-0.2 -0.2,-0.2 0.5,-1 1.4,-3.6 0.7,-7.3 2.1,1.6 4.6,2.5 7.3,2.5 2.3,0 4.5,-0.7 6.4,-1.9 -1.2,4.3 0.3,7.2 0.6,7.6 z M 25.9,49.1 c 0.3,-0.1 0.6,-0.2 0.9,-0.3 2.3,-0.7 4.9,-1.1 7.8,-1.1 2.8,0 5.5,0.4 7.8,1.1 0.3,0.1 0.6,0.2 0.9,0.3 3.2,1 4.7,1.4 4.3,8.1 0,0.4 -0.1,0.9 -0.1,1.3 -0.6,-1.4 -1.5,-2.6 -2.8,-2.8 -2.5,-0.3 -9.1,-0.2 -9.4,-0.2 -0.1,0 -2.7,0.2 -5.7,-2.7 -0.2,-0.1 -0.4,-0.2 -0.6,-0.2 -0.2,0 -0.4,0.1 -0.5,0.3 -0.4,0.6 -0.9,1.8 -0.5,2.9 -1.7,-0.2 -3.9,-0.3 -4.8,0.8 -0.5,0.5 -0.9,1.3 -1.2,2.2 -0.1,-0.5 -0.1,-1.1 -0.1,-1.6 -0.7,-6.6 0.8,-7.1 4,-8.1 z m -3.5,22.4 c -0.1,0 -0.2,-0.1 -0.3,-0.1 -0.1,0 -0.2,0 -0.3,0.1 -0.1,0 -0.1,0 -0.2,0 -0.5,0 -1.4,-1.4 -1.4,-4 0,-2.3 0.8,-3.8 1.3,-4 0.3,-0.1 0.5,-0.3 0.6,-0.6 l 0,-0.3 c 0,-0.1 0,-0.1 0,-0.2 0.3,-1.3 1.1,-4 1.9,-4.9 0.6,-0.7 3.5,-0.4 5.2,0 0.3,0.1 0.7,-0.1 0.9,-0.4 0.2,-0.3 0.1,-0.7 -0.2,-0.9 -0.8,-0.6 -0.9,-1.3 -0.8,-1.8 3.2,2.6 5.9,2.4 6,2.4 0.1,0 6.8,-0.1 9.2,0.2 1.3,0.1 2.3,3.4 2.6,5.6 0,0 0,0.1 0,0.1 l 0,0.1 c 0.1,0.3 0.3,0.5 0.6,0.6 0.6,0.1 1.3,1.7 1.3,4 0,2.6 -0.9,4 -1.4,4 0,0 -0.1,0 -0.2,0 -0.2,-0.1 -0.4,-0.1 -0.6,0 -0.2,0.1 -0.3,0.3 -0.4,0.5 -1.9,6.2 -6.6,10.2 -11.8,10.2 -5.2,0 -9.9,-4 -11.8,-10.2 0.1,-0.2 0,-0.3 -0.2,-0.4 z M 10.5,96.6 c 1.5,-4.8 5.9,-7.5 11.6,-7.1 1.2,0.1 2.4,0.1 3.6,0.2 1.2,2.4 2.5,4.4 3.9,6.1 1.2,1.4 2.9,2.2 4.7,2.2 0,0 0,0 0,0 1.8,0 3.5,-0.8 4.7,-2.1 l 0.1,-0.1 c 0.2,-0.3 0.5,-0.5 0.7,-0.8 1.2,-1.4 2.2,-2.5 3.6,-5.3 1.2,-0.1 2.5,-0.1 3.7,-0.2 0.8,-0.1 1.7,-0.1 2.5,0 1.5,0.1 2.9,0.5 4.1,1.1 0.9,0.5 1.8,1 2.5,1.7 1,0.9 1.7,2.1 2.3,3.4 0.1,0.3 0.2,0.5 0.3,0.8 l 1.8,6 -51.9,0 c 0.6,-2.1 1.2,-4 1.8,-5.9 z" /><path
       style="fill:#000000;fill-opacity:1"
       id="path74"
       d="M 124.3,57.6 123,53.4 c -0.3,-0.9 -0.6,-1.9 -0.9,-2.8 -0.1,-0.3 -0.2,-0.6 -0.3,-0.9 -0.6,-1.5 -1.5,-2.8 -2.6,-3.9 -0.8,-0.8 -1.8,-1.5 -2.9,-2 -1.4,-0.7 -2.9,-1.1 -4.6,-1.3 -0.9,-0.1 -1.8,-0.1 -2.7,0 -1.3,0.1 -2.7,0.2 -4,0.2 -0.5,-1 -1.5,-3.9 0.1,-8.2 0,0 0,0 0,0 4.7,1 8.2,-0.9 8.3,-1 0.2,-0.1 0.3,-0.3 0.4,-0.4 l 1.1,-3.7 c 0,0 0,-0.1 0,-0.1 0.1,-0.8 2.7,-20.7 -10,-26.7 -12.7,-6 -21,3.1 -21,3.2 -9.8,10 -4.5,26.6 -4.2,27.3 0,0.1 0.1,0.3 0.3,0.4 1.6,1.2 3.9,1.5 6,1.5 0.8,0 1.5,0 2.1,-0.1 1.4,4 0.4,6.9 0,7.9 -1.3,-0.1 -2.6,-0.1 -3.8,-0.2 -6.3,-0.5 -11.4,2.7 -13.1,8.1 -0.7,2.2 -1.4,4.5 -2.1,7 -0.1,0.2 0,0.5 0.1,0.7 0.1,0.2 0.4,0.3 0.6,0.3 l 53.8,0 c 0.2,0 0.5,-0.1 0.6,-0.3 0.2,-0.3 0.2,-0.6 0.1,-0.8 z M 81.1,32.3 c -0.6,-2 -4.6,-16.8 4,-25.6 0.3,-0.3 7.6,-8.4 19.3,-2.9 11.4,5.4 9.3,23.9 9.2,25.1 l -1,3.4 c -1,0.4 -4.6,1.8 -8.8,0.2 4.2,-4.1 5,-9.8 5,-10.1 0,-0.3 -0.1,-0.6 -0.3,-0.7 -6.1,-3.8 -7.4,-13.2 -7.4,-13.3 0,-0.3 -0.3,-0.6 -0.6,-0.6 -0.3,-0.1 -0.6,0 -0.8,0.3 -5.3,7.6 -11.4,6.2 -12.1,6 -1.2,-0.7 -2.3,-0.8 -3.2,-0.3 -1.1,0.5 -1.3,1.7 -1.3,1.9 -0.3,5 0.9,6.6 1.5,7.2 1.3,4.6 3.1,8 5.4,10.2 -1.5,0.2 -6.3,0.9 -8.9,-0.8 z m 4.8,-10.1 c -0.1,-0.2 -0.2,-0.4 -0.4,-0.5 0,0 -1.4,-0.9 -1,-5.9 0,0 0.1,-0.5 0.5,-0.7 0.1,-0.1 0.3,-0.1 0.4,-0.1 0.4,0 0.9,0.2 1.4,0.5 0,0 0.1,0 0.1,0.1 0.3,0.1 6.9,2.1 12.8,-5.2 0.7,3 2.6,9.1 7.4,12.4 -0.4,1.9 -2.2,9.3 -9.2,11.6 0,0 -2.2,0.7 -4.8,-0.8 C 90,31.8 87.5,27.9 85.9,22.2 Z m 4.8,12.2 c 0.2,0 0.4,-0.2 0.5,-0.3 0.4,0.3 0.8,0.5 1.2,0.7 1.6,0.9 3.1,1.1 4.2,1.1 1.1,0 1.7,-0.2 1.8,-0.2 1.6,-0.5 2.9,-1.3 4.1,-2.1 0.1,0.1 0.2,0.2 0.3,0.2 0.3,0.1 0.7,0.3 1,0.4 -2.1,5.5 -0.1,9.2 0.2,9.7 -1.3,2.4 -2.1,3.4 -3.2,4.7 -0.2,0.3 -0.4,0.5 -0.7,0.8 l 0.6,0.5 -0.6,-0.4 c -0.9,1 -2.2,1.6 -3.5,1.6 0,0 0,0 0,0 -1.4,0 -2.7,-0.6 -3.5,-1.7 -1.3,-1.5 -2.5,-3.4 -3.6,-5.5 0.3,-0.5 2.1,-4.1 0.4,-9.2 0.4,-0.2 0.8,-0.2 0.8,-0.3 z M 70.8,57.1 c 0.6,-2.1 1.2,-4.1 1.8,-6 1.5,-4.8 5.9,-7.5 11.6,-7.1 1.2,0.1 2.4,0.1 3.6,0.2 1.2,2.4 2.5,4.4 3.9,6.1 1.2,1.4 2.9,2.2 4.7,2.2 0,0 0,0 0,0 1.8,0 3.5,-0.8 4.7,-2.1 l 0.1,-0.1 c 0.2,-0.3 0.5,-0.5 0.7,-0.8 1.2,-1.4 2.2,-2.5 3.6,-5.3 1.2,-0.1 2.5,-0.1 3.7,-0.2 0.9,-0.1 1.7,-0.1 2.5,0 1.5,0.1 2.9,0.5 4.1,1.1 0.9,0.5 1.8,1 2.5,1.7 1,0.9 1.7,2.1 2.3,3.4 0.1,0.3 0.2,0.5 0.3,0.8 0.3,0.9 0.6,1.8 0.9,2.8 l 1,3.2 -52,0 z" /><path
       style="fill:#000000;fill-opacity:1"
       id="path76"
       d="m 110.8,71.9 c 0.1,0.2 0.4,0.3 0.6,0.3 0.2,0 0.3,-0.1 0.5,-0.2 0.3,-0.3 0.4,-0.7 0.1,-1.1 l -4.4,-5.4 c -0.3,-0.4 -0.9,-0.4 -1.2,0 l -4.4,5.4 c -0.3,0.3 -0.2,0.8 0.1,1.1 0.3,0.3 0.8,0.2 1.1,-0.1 l 3,-3.7 c -0.8,16.7 -14.6,30.1 -31.5,30.1 -0.4,0 -0.8,0.3 -0.8,0.8 0,0.4 0.3,0.8 0.8,0.8 17.8,0 32.3,-14.1 33,-31.7 l 3.1,3.7 z" /><path
       style="fill:#000000;fill-opacity:1"
       id="path78"
       d="m 36.9,41 c 0.1,0.2 0.4,0.3 0.6,0.3 0.2,0 0.4,-0.1 0.6,-0.3 l 4.4,-5.4 c 0.3,-0.3 0.2,-0.8 -0.1,-1.1 -0.3,-0.3 -0.8,-0.2 -1.1,0.1 l -3,3.7 C 39,21.7 52.9,8.3 69.8,8.3 70.2,8.3 70.6,8 70.6,7.5 70.6,7.1 70.3,6.7 69.8,6.7 52,6.7 37.5,20.8 36.8,38.4 l -3.1,-3.8 c -0.3,-0.3 -0.7,-0.4 -1.1,-0.1 -0.3,0.3 -0.4,0.7 -0.1,1.1 l 4.4,5.4 z" /></g></svg>