<?xml version="1.0" encoding="UTF-8" standalone="no"?>
<svg
   xmlns:dc="http://purl.org/dc/elements/1.1/"
   xmlns:cc="http://creativecommons.org/ns#"
   xmlns:rdf="http://www.w3.org/1999/02/22-rdf-syntax-ns#"
   xmlns:svg="http://www.w3.org/2000/svg"
   xmlns="http://www.w3.org/2000/svg"
   xmlns:sodipodi="http://sodipodi.sourceforge.net/DTD/sodipodi-0.dtd"
   xmlns:inkscape="http://www.inkscape.org/namespaces/inkscape"
   viewBox="0 0 533.33331 604.83331"
   height="604.83331"
   width="533.33331"
   xml:space="preserve"
   id="svg2"
   version="1.1"
   inkscape:version="0.91 r13725"
   sodipodi:docname="css3.svg"><sodipodi:namedview
     pagecolor="#ffffff"
     bordercolor="#666666"
     borderopacity="1"
     objecttolerance="10"
     gridtolerance="10"
     guidetolerance="10"
     inkscape:pageopacity="0"
     inkscape:pageshadow="2"
     inkscape:window-width="664"
     inkscape:window-height="480"
     id="namedview19"
     showgrid="false"
     fit-margin-top="0"
     fit-margin-left="0"
     fit-margin-right="0"
     fit-margin-bottom="0"
     inkscape:zoom="0.31365739"
     inkscape:cx="266.66666"
     inkscape:cy="376.20666"
     inkscape:window-x="0"
     inkscape:window-y="0"
     inkscape:window-maximized="0"
     inkscape:current-layer="g12" /><metadata
     id="metadata8"><rdf:RDF><cc:Work
         rdf:about=""><dc:format>image/svg+xml</dc:format><dc:type
           rdf:resource="http://purl.org/dc/dcmitype/StillImage" /><dc:title></dc:title></cc:Work></rdf:RDF></metadata><defs
     id="defs6" /><g
     transform="matrix(1.3333333,0,0,-1.3333333,0,604.83332)"
     id="g10"><g
       transform="scale(0.1,0.1)"
       id="g12"><path
         id="path20"
         style="fill:#0071bc;fill-opacity:1;fill-rule:nonzero;stroke:none"
         d="M 364.023,453.48 0,4536.25 l 4000,0 L 3635.59,454.148 1997.58,0 364.023,453.48"
         inkscape:connector-curvature="0" /><path
         id="path22"
         style="fill:#29abe2;fill-opacity:1;fill-rule:nonzero;stroke:none"
         d="m 2003.36,347.352 1321.95,363.668 309.73,3485.23 -1631.68,0 0,-3848.898"
         inkscape:connector-curvature="0" /><path
         id="path24"
         style="fill:#b3b3b3;fill-opacity:1;fill-rule:nonzero;stroke:none"
         d="m 833.242,2696.25 43.848,-500 1126.27,500 0,500.81 -1170.118,-500.81"
         inkscape:connector-curvature="0" /><path
         id="path26"
         style="fill:#e6e6e6;fill-opacity:1;fill-rule:nonzero;stroke:none"
         d="m 3250.74,3731.65 -1247.38,-534.59 0,-500.81 1204.37,535.4 43.01,500"
         inkscape:connector-curvature="0" /><path
         id="path28"
         style="fill:#e6e6e6;fill-opacity:1;fill-rule:nonzero;stroke:none"
         d="m 2003.36,1388.01 -3.87,-0.58 -558.55,150 -36.49,398.82 -502.692,0 70.156,-785.7 1027.466,-284.491 3.98,0.941 0,521.01"
         inkscape:connector-curvature="0" /><path
         id="path30"
         style="fill:#ffffff;fill-opacity:1;fill-rule:nonzero;stroke:none"
         d="m 2003.36,2696.25 0,-500 611.52,0 -55.58,-653.71 -555.94,-154.96 0,-520.971 1024.06,284.491 134.85,1545.15 -1158.91,0"
         inkscape:connector-curvature="0" /><path
         id="path32"
         style="fill:#e6e6e6;fill-opacity:1;fill-rule:nonzero;stroke:none"
         d="m 2003.36,2696.25 -1170.118,0 43.848,-500 1126.27,0 0,500"
         inkscape:connector-curvature="0" /><path
         id="path34"
         style="fill:#e6e6e6;fill-opacity:1;fill-rule:nonzero;stroke:none"
         d="m 2003.36,3231.65 0,500 -1259.024,0 44.375,-500 1214.649,0"
         inkscape:connector-curvature="0" /><path
         id="path36"
         style="fill:#ffffff;fill-opacity:1;fill-rule:nonzero;stroke:none"
         d="m 2003.36,3731.65 0,-500 1204.37,0 43.01,500 -1247.38,0"
         inkscape:connector-curvature="0" /></g></g></svg>