<?xml version="1.0" encoding="UTF-8" standalone="no"?>
<svg
   xmlns:dc="http://purl.org/dc/elements/1.1/"
   xmlns:cc="http://creativecommons.org/ns#"
   xmlns:rdf="http://www.w3.org/1999/02/22-rdf-syntax-ns#"
   xmlns:svg="http://www.w3.org/2000/svg"
   xmlns="http://www.w3.org/2000/svg"
   xmlns:sodipodi="http://sodipodi.sourceforge.net/DTD/sodipodi-0.dtd"
   xmlns:inkscape="http://www.inkscape.org/namespaces/inkscape"
   version="1.1"
   x="0px"
   y="0px"
   viewBox="0 0 127.025 117.9"
   enable-background="new 0 0 128 128"
   xml:space="preserve"
   id="svg2"
   width="127.025"
   height="117.9"
   inkscape:version="0.91 r13725"
   sodipodi:docname="ideas.svg"><sodipodi:namedview
     pagecolor="#ffffff"
     bordercolor="#666666"
     borderopacity="1"
     objecttolerance="10"
     gridtolerance="10"
     guidetolerance="10"
     inkscape:pageopacity="0"
     inkscape:pageshadow="2"
     inkscape:window-width="999"
     inkscape:window-height="529"
     id="namedview46"
     showgrid="false"
     inkscape:zoom="2.0016963"
     inkscape:cx="63.512501"
     inkscape:cy="58.950001"
     inkscape:window-x="0"
     inkscape:window-y="0"
     inkscape:window-maximized="0"
     inkscape:current-layer="svg2" /><metadata
     id="metadata94"><rdf:RDF><cc:Work
         rdf:about=""><dc:format>image/svg+xml</dc:format><dc:type
           rdf:resource="http://purl.org/dc/dcmitype/StillImage" /><dc:title /></cc:Work></rdf:RDF></metadata><defs
     id="defs92" /><g
     style="fill:#000000;fill-opacity:1"
     id="g4"
     transform="translate(-0.475,-5)"><path
       style="fill:#000000;fill-opacity:1"
       d="m 7.6,45.5 c 0,-0.4 -0.3,-0.7 -0.7,-0.7 -0.4,0 -0.7,0.3 -0.7,0.7 l 0,10.9 c 0,0.4 0.3,0.7 0.7,0.7 0.4,0 0.7,-0.3 0.7,-0.7 l 0,-10.9 z"
       id="path6" /><path
       style="fill:#000000;fill-opacity:1"
       d="m 6.9,59.3 c -0.4,0 -0.7,0.3 -0.7,0.7 l 0,3.5 c 0,0.4 0.3,0.7 0.7,0.7 0.4,0 0.7,-0.3 0.7,-0.7 l 0,-3.5 c 0,-0.4 -0.3,-0.7 -0.7,-0.7 z"
       id="path8" /><path
       style="fill:#000000;fill-opacity:1"
       d="m 116.7,74.4 c 0,-0.4 -0.3,-0.7 -0.7,-0.7 -0.4,0 -0.7,0.3 -0.7,0.7 l 0,10.9 c 0,0.4 0.3,0.7 0.7,0.7 0.4,0 0.7,-0.3 0.7,-0.7 l 0,-10.9 z"
       id="path10" /><path
       style="fill:#000000;fill-opacity:1"
       d="m 115.9,88.2 c -0.4,0 -0.7,0.3 -0.7,0.7 l 0,3.5 c 0,0.4 0.3,0.7 0.7,0.7 0.4,0 0.7,-0.3 0.7,-0.7 l 0,-3.5 c 0.1,-0.4 -0.3,-0.7 -0.7,-0.7 z"
       id="path12" /><path
       style="fill:#000000;fill-opacity:1"
       d="m 115.4,25.3 c 0.1,0.1 0.3,0.2 0.5,0.2 0.2,0 0.4,-0.1 0.5,-0.2 0.3,-0.3 0.3,-0.8 0,-1 l -1.7,-1.7 c -0.3,-0.3 -0.8,-0.3 -1,0 -0.3,0.3 -0.3,0.8 0,1 l 1.7,1.7 z"
       id="path14" /><path
       style="fill:#000000;fill-opacity:1"
       d="m 120.8,30.6 c 0.1,0.1 0.3,0.2 0.5,0.2 0.2,0 0.4,-0.1 0.5,-0.2 0.3,-0.3 0.3,-0.8 0,-1 l -1.7,-1.7 c -0.3,-0.3 -0.8,-0.3 -1,0 -0.2,0.3 -0.3,0.8 0,1 l 1.7,1.7 z"
       id="path16" /><path
       style="fill:#000000;fill-opacity:1"
       d="m 114.3,30.9 c 0.2,0 0.4,-0.1 0.5,-0.2 l 1.7,-1.7 c 0.3,-0.3 0.3,-0.8 0,-1 -0.3,-0.2 -0.8,-0.3 -1,0 l -1.7,1.7 c -0.3,0.3 -0.3,0.8 0,1 0.1,0.1 0.3,0.2 0.5,0.2 z"
       id="path18" /><path
       style="fill:#000000;fill-opacity:1"
       d="m 119.6,25.5 c 0.2,0 0.4,-0.1 0.5,-0.2 l 1.7,-1.7 c 0.3,-0.3 0.3,-0.8 0,-1 -0.3,-0.3 -0.8,-0.3 -1,0 l -1.7,1.7 c -0.3,0.3 -0.3,0.8 0,1 0.2,0.1 0.4,0.2 0.5,0.2 z"
       id="path20" /><path
       style="fill:#000000;fill-opacity:1"
       d="m 76.8,113.7 c -0.3,-0.3 -0.8,-0.3 -1,0 -0.2,0.3 -0.3,0.8 0,1 l 1.7,1.7 c 0.1,0.1 0.3,0.2 0.5,0.2 0.2,0 0.4,-0.1 0.5,-0.2 0.3,-0.3 0.3,-0.8 0,-1 l -1.7,-1.7 z"
       id="path22" /><path
       style="fill:#000000;fill-opacity:1"
       d="m 82.1,119.1 c -0.3,-0.3 -0.8,-0.3 -1,0 -0.2,0.3 -0.3,0.8 0,1 l 1.7,1.7 c 0.1,0.1 0.3,0.2 0.5,0.2 0.2,0 0.4,-0.1 0.5,-0.2 0.3,-0.3 0.3,-0.8 0,-1 l -1.7,-1.7 z"
       id="path24" /><path
       style="fill:#000000;fill-opacity:1"
       d="m 77.4,119.1 -1.7,1.7 c -0.3,0.3 -0.3,0.8 0,1 0.1,0.1 0.3,0.2 0.5,0.2 0.2,0 0.4,-0.1 0.5,-0.2 l 1.7,-1.7 c 0.3,-0.3 0.3,-0.8 0,-1 -0.3,-0.3 -0.7,-0.3 -1,0 z"
       id="path26" /><path
       style="fill:#000000;fill-opacity:1"
       d="m 82.8,113.7 -1.7,1.7 c -0.3,0.3 -0.3,0.8 0,1 0.1,0.1 0.3,0.2 0.5,0.2 0.2,0 0.4,-0.1 0.5,-0.2 l 1.7,-1.7 c 0.3,-0.3 0.3,-0.8 0,-1 -0.3,-0.3 -0.8,-0.3 -1,0 z"
       id="path28" /><path
       style="fill:#000000;fill-opacity:1"
       d="m 1.8,88 c -0.3,-0.3 -0.8,-0.3 -1,0 -0.3,0.3 -0.3,0.8 0,1 l 1.7,1.7 c 0.1,0.1 0.3,0.2 0.5,0.2 0.2,0 0.4,-0.1 0.5,-0.2 0.3,-0.3 0.3,-0.8 0,-1 L 1.8,88 Z"
       id="path30" /><path
       style="fill:#000000;fill-opacity:1"
       d="m 7.1,93.4 c -0.3,-0.3 -0.8,-0.3 -1,0 -0.3,0.3 -0.3,0.8 0,1 l 1.7,1.7 c 0.1,0.1 0.3,0.2 0.5,0.2 0.2,0 0.4,-0.1 0.5,-0.2 0.3,-0.3 0.3,-0.8 0,-1 L 7.1,93.4 Z"
       id="path32" /><path
       style="fill:#000000;fill-opacity:1"
       d="m 2.4,93.4 -1.7,1.7 c -0.3,0.3 -0.3,0.8 0,1 0.1,0.1 0.3,0.2 0.5,0.2 0.2,0 0.4,-0.1 0.5,-0.2 l 1.7,-1.7 c 0.3,-0.3 0.3,-0.8 0,-1 -0.3,-0.3 -0.7,-0.3 -1,0 z"
       id="path34" /><path
       style="fill:#000000;fill-opacity:1"
       d="m 7.8,88 -1.7,1.7 c -0.3,0.3 -0.3,0.8 0,1 0.1,0.1 0.3,0.2 0.5,0.2 0.2,0 0.4,-0.1 0.5,-0.2 L 8.8,89 c 0.3,-0.3 0.3,-0.8 0,-1 -0.3,-0.3 -0.8,-0.3 -1,0 z"
       id="path36" /><path
       style="fill:#000000;fill-opacity:1"
       d="m 80.8,12.1 c 1.9,0 3.5,-1.6 3.5,-3.5 0,-1.9 -1.6,-3.6 -3.5,-3.6 -1.9,0 -3.5,1.6 -3.5,3.5 0,1.9 1.6,3.6 3.5,3.6 z m 0,-5.6 c 1.1,0 2,0.9 2,2 0,1.1 -0.9,2 -2,2 -1.1,0 -2,-0.9 -2,-2 0,-1.1 0.9,-2 2,-2 z"
       id="path38" /><path
       style="fill:#000000;fill-opacity:1"
       d="m 33.6,112.4 c -1.9,0 -3.5,1.6 -3.5,3.5 0,1.9 1.6,3.5 3.5,3.5 1.9,0 3.5,-1.6 3.5,-3.5 0,-1.9 -1.6,-3.5 -3.5,-3.5 z m 0,5.5 c -1.1,0 -2,-0.9 -2,-2 0,-1.1 0.9,-2 2,-2 1.1,0 2,0.9 2,2 0,1.1 -0.9,2 -2,2 z"
       id="path40" /><path
       style="fill:#000000;fill-opacity:1"
       d="m 25.1,10.3 c 0,-0.4 -0.3,-0.7 -0.7,-0.7 l -13.2,0 c -0.4,0 -0.7,0.3 -0.7,0.7 0,0.4 0.3,0.7 0.7,0.7 l 13.1,0 c 0.4,0 0.8,-0.3 0.8,-0.7 z"
       id="path42" /><path
       style="fill:#000000;fill-opacity:1"
       d="m 2.6,11 4.2,0 C 7.2,11 7.5,10.7 7.5,10.3 7.5,9.9 7.2,9.6 6.8,9.6 l -4.2,0 c -0.4,0 -0.7,0.3 -0.7,0.7 0,0.4 0.3,0.7 0.7,0.7 z"
       id="path44" /><path
       style="fill:#000000;fill-opacity:1"
       d="m 2.6,6.5 9.2,0 c 0.4,0 0.7,-0.3 0.7,-0.7 0,-0.4 -0.3,-0.7 -0.7,-0.7 l -9.2,0 C 2.2,5 1.9,5.4 1.9,5.8 c 0,0.4 0.3,0.7 0.7,0.7 z"
       id="path46" /><path
       style="fill:#000000;fill-opacity:1"
       d="m 15.7,6.5 3,0 c 0.4,0 0.7,-0.3 0.7,-0.7 0,-0.4 -0.3,-0.7 -0.7,-0.7 l -3,0 C 15.3,5 15,5.4 15,5.8 c 0,0.4 0.3,0.7 0.7,0.7 z"
       id="path48" /><path
       style="fill:#000000;fill-opacity:1"
       d="m 118.9,117.7 c 0,-0.4 -0.3,-0.7 -0.7,-0.7 l -13.1,0 c -0.4,0 -0.7,0.3 -0.7,0.7 0,0.4 0.3,0.7 0.7,0.7 l 13.1,0 c 0.4,0.1 0.7,-0.3 0.7,-0.7 z"
       id="path50" /><path
       style="fill:#000000;fill-opacity:1"
       d="m 121.8,117.7 c 0,0.4 0.3,0.7 0.7,0.7 l 4.2,0 c 0.4,0 0.7,-0.3 0.7,-0.7 0,-0.4 -0.3,-0.7 -0.7,-0.7 l -4.2,0 c -0.4,0 -0.7,0.3 -0.7,0.7 z"
       id="path52" /><path
       style="fill:#000000;fill-opacity:1"
       d="m 126.8,121.5 -9.2,0 c -0.4,0 -0.7,0.3 -0.7,0.7 0,0.4 0.3,0.7 0.7,0.7 l 9.2,0 c 0.4,0 0.7,-0.3 0.7,-0.7 0,-0.4 -0.3,-0.7 -0.7,-0.7 z"
       id="path54" /><path
       style="fill:#000000;fill-opacity:1"
       d="m 113.7,121.5 -3,0 c -0.4,0 -0.7,0.3 -0.7,0.7 0,0.4 0.3,0.7 0.7,0.7 l 3,0 c 0.4,0 0.7,-0.3 0.7,-0.7 0,-0.4 -0.3,-0.7 -0.7,-0.7 z"
       id="path56" /><path
       style="fill:#000000;fill-opacity:1"
       d="m 95.1,62.8 c 0,-3.1 -1.8,-5.9 -4.6,-7.1 1.1,-1.5 1.7,-3.3 1.7,-5.2 0,-5 -4.1,-9.1 -9.1,-9.1 -0.5,0 -1.1,0.1 -1.6,0.2 0,-0.3 0.1,-0.5 0.1,-0.8 0,-3.4 -2.8,-6.1 -6.1,-6.1 -0.9,0 -1.8,0.2 -2.6,0.6 0,-0.1 0,-0.3 0,-0.4 0,-2.9 -2.3,-5.2 -5.2,-5.2 -2.9,0 -5.2,2.3 -5.2,5.2 l 0,56 c 0,2.9 2.3,5.2 5.2,5.2 2.4,0 4.5,-1.7 5,-4 1.2,0.8 2.6,1.3 4.1,1.3 0.3,0 0.7,0 1,-0.1 1.8,-0.3 3.5,-1.2 4.6,-2.7 1,-1.4 1.5,-3 1.4,-4.7 4.1,-1.6 7,-5.6 7,-10.2 0,-1.9 -0.5,-3.7 -1.3,-5.3 3.2,-1 5.6,-4 5.6,-7.6 z M 88.6,69 c -1.2,-1.6 -2.8,-2.8 -4.7,-3.6 -0.4,-0.2 -0.8,0 -1,0.4 -0.2,0.4 0,0.8 0.4,1 3.6,1.5 6,4.9 6,8.8 0,5.3 -4.3,9.5 -9.5,9.5 -0.4,0 -0.7,0.3 -0.7,0.7 0,0.4 0.3,0.7 0.7,0.7 0.9,0 1.7,-0.1 2.5,-0.3 0,1.2 -0.3,2.4 -1.1,3.3 -0.9,1.2 -2.2,1.9 -3.6,2.1 -3,0.4 -5.8,-1.7 -6.2,-4.7 -0.1,-0.4 -0.4,-0.7 -0.8,-0.6 -0.4,0.1 -0.7,0.4 -0.6,0.8 0.2,1.3 0.7,2.5 1.5,3.4 0,0 0,0 0,0.1 0,2 -1.7,3.7 -3.7,3.7 -2,0 -3.7,-1.7 -3.7,-3.7 l 0,-5.6 c 0.8,-0.4 2.4,-1.1 3.5,-0.7 0.4,0.1 0.8,-0.1 0.9,-0.5 C 68.6,83.4 68.4,83 68,82.9 66.6,82.5 65.1,83 64.1,83.4 l 0,-6.2 c 0.1,-0.6 1.5,-6.5 7,-6.5 0.4,0 0.7,-0.3 0.7,-0.7 0,-0.4 -0.3,-0.8 -0.7,-0.7 -3.6,0 -5.7,2.1 -6.9,4.2 l 0,-17 c 1,-0.2 3.6,-0.1 6.8,4.4 0.1,0.2 0.4,0.3 0.6,0.3 0.1,0 0.3,0 0.4,-0.1 0.3,-0.2 0.4,-0.7 0.2,-1 -3.4,-4.7 -6.4,-5.2 -8,-5 l 0,-11.9 c 0.9,-0.1 2.7,-0.2 3.9,1.9 0.1,0.2 0.4,0.4 0.6,0.4 0.1,0 0.3,0 0.4,-0.1 0.4,-0.2 0.5,-0.7 0.3,-1 -1.4,-2.5 -3.7,-2.9 -5.2,-2.7 l 0,-6.9 c 0,-2 1.7,-3.7 3.7,-3.7 2,0 3.7,1.7 3.7,3.7 0,0.6 -0.2,1.3 -0.5,1.8 -1,1.1 -1.6,2.5 -1.6,4.1 0,0.4 0.3,0.7 0.7,0.7 0.4,0 0.7,-0.3 0.7,-0.7 0,-0.9 0.3,-1.8 0.8,-2.5 0,0 0.1,-0.1 0.1,-0.1 0.1,-0.2 0.2,-0.3 0.4,-0.5 0.9,-0.9 2.1,-1.5 3.4,-1.5 2.6,0 4.7,2.1 4.7,4.7 0,0.5 -0.1,1 -0.2,1.5 -0.1,0.2 -0.1,0.4 -0.1,0.6 0,0.1 0.1,0.2 0.2,0.3 0,0 0,0 0,0 0.1,0 0.1,0.1 0.2,0.1 0,0 0,0 0,0 0,0 0.1,0 0.1,0 0,0 0,0 0,0 0,0 0,0 0.1,0 0.1,0 0.2,0 0.3,-0.1 0.8,-0.2 1.5,-0.4 2.3,-0.4 4.2,0 7.6,3.4 7.6,7.6 0,2.9 -1.7,5.6 -4.4,6.9 -0.4,0.2 -0.5,0.6 -0.4,1 0.1,0.3 0.4,0.4 0.7,0.4 0.1,0 0.2,0 0.3,-0.1 1,-0.4 1.8,-1.1 2.5,-1.8 2.5,0.9 4.2,3.2 4.2,5.9 -0.1,3.1 -2.2,5.7 -5.1,6.3 z"
       id="path58" /><path
       style="fill:#000000;fill-opacity:1"
       d="m 77.9,54.8 c 0.1,0.3 0.4,0.5 0.7,0.5 0.1,0 0.2,0 0.3,0 0.4,-0.1 0.6,-0.6 0.4,-0.9 -1,-2.6 -2.4,-4.3 -4.3,-5 -2.7,-0.9 -5.2,0.5 -5.3,0.6 -0.3,0.2 -0.5,0.7 -0.3,1 0.2,0.3 0.7,0.5 1,0.3 0,0 2,-1.2 4.1,-0.5 1.4,0.4 2.5,1.8 3.4,4 z"
       id="path60" /><path
       style="fill:#000000;fill-opacity:1"
       d="m 80.5,70.9 c -0.4,0 -0.8,0.3 -0.8,0.7 0,0 -0.5,4.1 -4.9,4.8 -0.4,0.1 -0.7,0.4 -0.6,0.8 0.1,0.4 0.4,0.6 0.7,0.6 0,0 0.1,0 0.1,0 5.6,-0.9 6.2,-6.1 6.2,-6.1 0,-0.4 -0.3,-0.7 -0.7,-0.8 z"
       id="path62" /><path
       style="fill:#000000;fill-opacity:1"
       d="m 39.5,90.5 c 1.1,1.5 2.7,2.5 4.6,2.7 0.3,0 0.7,0.1 1,0.1 1.5,0 2.9,-0.5 4.1,-1.3 0.5,2.3 2.6,4 5,4 2.9,0 5.2,-2.3 5.2,-5.2 l 0,-56 c 0,-2.9 -2.3,-5.2 -5.2,-5.2 -2.9,0 -5.2,2.3 -5.2,5.2 0,0.1 0,0.3 0,0.4 -0.8,-0.4 -1.7,-0.6 -2.6,-0.6 -3.4,0 -6.1,2.8 -6.1,6.1 0,0.3 0,0.5 0.1,0.8 -0.5,-0.1 -1.1,-0.2 -1.6,-0.2 -5,0 -9.1,4.1 -9.1,9.1 0,1.9 0.6,3.7 1.7,5.2 -2.8,1.2 -4.6,4 -4.6,7.1 0,3.5 2.4,6.6 5.7,7.5 -0.9,1.6 -1.3,3.4 -1.3,5.3 0,4.7 2.9,8.7 7,10.2 -0.2,1.8 0.3,3.5 1.3,4.8 z M 32.6,75.6 c 0,-3.9 2.3,-7.4 6,-8.8 0.4,-0.2 0.6,-0.6 0.4,-1 -0.2,-0.4 -0.6,-0.6 -1,-0.4 -1.9,0.8 -3.5,2 -4.7,3.6 -2.9,-0.6 -5.1,-3.2 -5.1,-6.2 0,-2.7 1.7,-5 4.2,-5.9 0.7,0.7 1.6,1.4 2.5,1.8 0.1,0 0.2,0.1 0.3,0.1 0.3,0 0.5,-0.2 0.7,-0.4 0.2,-0.4 0,-0.8 -0.4,-1 -2.7,-1.2 -4.4,-3.9 -4.4,-6.9 0,-4.2 3.4,-7.6 7.6,-7.6 0.8,0 1.6,0.1 2.3,0.4 0.1,0 0.2,0.1 0.3,0.1 0,0 0,0 0.1,0 0,0 0,0 0,0 0,0 0.1,0 0.1,0 0,0 0,0 0,0 0.1,0 0.1,-0.1 0.2,-0.1 0,0 0,0 0,0 0.1,-0.1 0.2,-0.2 0.2,-0.3 0.1,-0.2 0,-0.4 -0.1,-0.6 -0.2,-0.5 -0.2,-1 -0.2,-1.5 0,-2.6 2.1,-4.7 4.7,-4.7 1.4,0 2.6,0.6 3.4,1.5 0.1,0.2 0.2,0.4 0.4,0.5 0,0 0.1,0.1 0.1,0.1 0.5,0.7 0.8,1.6 0.8,2.5 0,0.4 0.3,0.7 0.7,0.7 0.4,0 0.7,-0.3 0.7,-0.7 0,-1.6 -0.6,-3 -1.6,-4.1 -0.3,-0.6 -0.5,-1.2 -0.5,-1.8 0,-2 1.7,-3.7 3.7,-3.7 2,0 3.7,1.7 3.7,3.7 l 0,6.9 c -1.5,-0.2 -3.8,0.2 -5.2,2.7 -0.2,0.4 -0.1,0.8 0.3,1 0.1,0.1 0.2,0.1 0.4,0.1 0.3,0 0.5,-0.1 0.6,-0.4 1.2,-2.1 3.1,-2.1 3.9,-1.9 l 0,11.7 c -1.5,-0.2 -4.6,0.3 -8,5 -0.2,0.3 -0.2,0.8 0.2,1 0.1,0.1 0.3,0.1 0.4,0.1 0.2,0 0.5,-0.1 0.6,-0.3 3.2,-4.5 5.8,-4.5 6.8,-4.4 l 0,17 c -1.2,-2 -3.3,-4.1 -6.9,-4.1 0,0 0,0 0,0 -0.4,0 -0.7,0.3 -0.7,0.7 0,0.4 0.3,0.7 0.7,0.7 5.5,0.1 6.8,5.9 7,6.5 l 0,6.2 c -1,-0.4 -2.5,-0.9 -3.9,-0.5 -0.4,0.1 -0.6,0.5 -0.5,0.9 0.1,0.4 0.5,0.6 0.9,0.5 1.1,-0.3 2.7,0.3 3.5,0.7 l 0,5.9 c 0,2 -1.7,3.7 -3.7,3.7 -2,0 -3.7,-1.7 -3.7,-3.7 0,0 0,0 0,-0.1 0.8,-1 1.3,-2.1 1.5,-3.4 0.1,-0.4 -0.2,-0.8 -0.6,-0.8 -0.4,-0.1 -0.8,0.2 -0.8,0.6 -0.2,1.5 -1,2.7 -2.1,3.6 -1.2,0.9 -2.6,1.3 -4.1,1 -1.5,-0.2 -2.7,-1 -3.6,-2.1 -0.7,-1 -1.1,-2.1 -1.1,-3.3 0.8,0.2 1.6,0.3 2.5,0.3 0.4,0 0.7,-0.3 0.7,-0.7 0,-0.4 -0.3,-0.7 -0.7,-0.7 -5.3,-0.2 -9.5,-4.4 -9.5,-9.7 z"
       id="path64" /><path
       style="fill:#000000;fill-opacity:1"
       d="m 43,55.2 c 0.1,0 0.2,0 0.3,0 0.3,0 0.6,-0.2 0.7,-0.5 0.8,-2.2 2,-3.6 3.4,-4.1 2,-0.7 4,0.4 4.1,0.5 0.3,0.2 0.8,0.1 1,-0.3 0.2,-0.3 0.1,-0.8 -0.3,-1 -0.1,-0.1 -2.6,-1.5 -5.3,-0.6 -1.9,0.7 -3.4,2.3 -4.3,5 -0.1,0.4 0.1,0.9 0.4,1 z"
       id="path66" /><path
       style="fill:#000000;fill-opacity:1"
       d="m 46.8,77.8 c 0,0 0.1,0 0.1,0 0.4,0 0.7,-0.3 0.7,-0.6 0.1,-0.4 -0.2,-0.8 -0.6,-0.8 -4.4,-0.7 -4.9,-4.6 -4.9,-4.8 0,-0.4 -0.4,-0.7 -0.8,-0.7 -0.4,0 -0.7,0.4 -0.7,0.8 0,0.1 0.6,5.2 6.2,6.1 z"
       id="path68" /><path
       style="fill:#000000;fill-opacity:1"
       d="m 89.2,34.3 c 0.2,0 0.4,-0.1 0.5,-0.2 l 14.3,-14.3 -1.4,6.7 c -0.1,0.4 0.2,0.8 0.6,0.9 0,0 0.1,0 0.1,0 0.3,0 0.6,-0.2 0.7,-0.6 l 1.8,-9.1 c 0,0 0,0 0,-0.1 0,-0.1 0,-0.2 0,-0.2 0,0 0,-0.1 0,-0.1 0,-0.1 -0.1,-0.2 -0.2,-0.3 0,0 0,0 0,0 l 0,0 c 0,0 0,0 0,0 -0.1,-0.1 -0.2,-0.1 -0.3,-0.2 0,0 -0.1,0 -0.1,0 -0.1,0 -0.1,0 -0.2,0 0,0 0,0 -0.1,0 L 96,18.6 c -0.4,0.1 -0.7,0.5 -0.6,0.9 0.1,0.4 0.5,0.7 0.9,0.6 L 103,18.7 88.6,33.1 c -0.3,0.3 -0.3,0.8 0,1 0.2,0.2 0.4,0.2 0.6,0.2 z"
       id="path70" /><path
       style="fill:#000000;fill-opacity:1"
       d="m 16.7,16.8 c -0.1,0 -0.1,0 -0.2,0 0,0 -0.1,0 -0.1,0 -0.1,0 -0.2,0.1 -0.3,0.2 0,0 0,0 0,0 l 0,0 0,0 c -0.1,0.1 -0.1,0.2 -0.2,0.3 0,0 0,0.1 0,0.1 0,0.1 0,0.2 0,0.2 0,0 0,0 0,0.1 l 1.8,9.1 c 0.1,0.3 0.4,0.6 0.7,0.6 0,0 0.1,0 0.1,0 0.4,-0.1 0.7,-0.5 0.6,-0.9 l -1.4,-6.7 14.4,14.4 c 0.1,0.1 0.3,0.2 0.5,0.2 0.2,0 0.4,-0.1 0.5,-0.2 0.3,-0.3 0.3,-0.8 0,-1 l -14.3,-14.5 6.7,1.4 c 0.4,0.1 0.8,-0.2 0.9,-0.6 0.1,-0.4 -0.2,-0.8 -0.6,-0.9 l -9.1,-1.8 c 0,0 0,0 0,0 z"
       id="path72" /><path
       style="fill:#000000;fill-opacity:1"
       d="m 105.2,108.9 c 0.1,0 0.2,0 0.2,0 0,0 0,0 0,0 0.1,0 0.2,-0.1 0.2,-0.2 l 0,0 c 0,0 0,0 0,0 0.1,-0.1 0.1,-0.2 0.2,-0.3 0,0 0,-0.1 0,-0.1 0,-0.1 0,-0.2 0,-0.2 0,0 0,0 0,-0.1 L 104,98.9 c -0.1,-0.4 -0.5,-0.7 -0.9,-0.6 -0.4,0.1 -0.7,0.5 -0.6,0.9 l 1.4,6.7 -14.2,-14.4 c -0.3,-0.3 -0.8,-0.3 -1,0 -0.3,0.3 -0.3,0.8 0,1 l 14.4,14.4 -6.7,-1.4 c -0.4,-0.1 -0.8,0.2 -0.9,0.6 -0.1,0.4 0.2,0.8 0.6,0.9 l 9.1,1.8 c 0,0.1 0,0.1 0,0.1 z"
       id="path74" /><path
       style="fill:#000000;fill-opacity:1"
       d="M 25.5,105.6 18.8,107 33.2,92.6 c 0.3,-0.3 0.3,-0.8 0,-1 -0.3,-0.2 -0.8,-0.3 -1,0 L 17.8,106 19.2,99.3 C 19.3,98.9 19,98.5 18.6,98.4 18.2,98.3 17.8,98.6 17.7,99 l -1.8,9.1 c 0,0 0,0 0,0.1 0,0.1 0,0.2 0,0.2 0,0 0,0.1 0,0.1 0,0.1 0.1,0.2 0.2,0.3 l 0,0 0,0 c 0.1,0.1 0.2,0.1 0.2,0.2 0,0 0,0 0,0 0.1,0 0.2,0 0.2,0 0,0 0.1,0 0.1,0 l 9.1,-1.8 c 0.4,-0.1 0.7,-0.5 0.6,-0.9 0,-0.5 -0.4,-0.8 -0.8,-0.7 z"
       id="path76" /><path
       style="fill:#000000;fill-opacity:1"
       d="m 100.4,36.2 c -0.2,-0.3 -0.7,-0.4 -1,-0.2 -0.3,0.2 -0.4,0.7 -0.2,1 1.7,2.5 3.1,5.1 4.3,7.8 1.2,2.8 2.1,5.7 2.7,8.7 0.6,3 0.9,6.2 0.9,9.3 0,3.1 -0.3,6.3 -0.9,9.3 -0.6,3 -1.5,5.9 -2.7,8.7 -1.2,2.7 -2.6,5.4 -4.3,7.8 -0.2,0.3 -0.1,0.8 0.2,1 0.1,0.1 0.3,0.1 0.4,0.1 0.2,0 0.5,-0.1 0.6,-0.3 1.7,-2.5 3.2,-5.3 4.4,-8.1 1.2,-2.9 2.2,-5.9 2.8,-8.9 0.6,-3.1 1,-6.4 1,-9.6 0,-3.2 -0.3,-6.5 -1,-9.6 -0.6,-3.1 -1.6,-6.1 -2.8,-8.9 -1.2,-2.8 -2.7,-5.6 -4.4,-8.1 z"
       id="path78" /><path
       style="fill:#000000;fill-opacity:1"
       d="m 35.1,24.5 c 2.5,-1.7 5.1,-3.1 7.8,-4.3 2.8,-1.2 5.7,-2.1 8.7,-2.7 6.1,-1.2 12.5,-1.2 18.6,0 3,0.6 5.9,1.5 8.7,2.7 2.7,1.2 5.4,2.6 7.8,4.3 0.1,0.1 0.3,0.1 0.4,0.1 0.2,0 0.5,-0.1 0.6,-0.3 0.2,-0.3 0.1,-0.8 -0.2,-1 -2.5,-1.7 -5.3,-3.2 -8.1,-4.4 -2.9,-1.2 -5.9,-2.2 -8.9,-2.8 -6.3,-1.3 -12.9,-1.3 -19.2,0 -3.1,0.6 -6.1,1.6 -8.9,2.8 -2.8,1.2 -5.5,2.7 -8.1,4.4 -0.3,0.2 -0.4,0.7 -0.2,1 0.2,0.4 0.7,0.5 1,0.2 z"
       id="path80" /><path
       style="fill:#000000;fill-opacity:1"
       d="m 21.4,89.5 c 0.1,0.2 0.4,0.3 0.6,0.3 0.1,0 0.3,0 0.4,-0.1 0.3,-0.2 0.4,-0.7 0.2,-1 -1.7,-2.5 -3.1,-5.1 -4.3,-7.8 -1.2,-2.8 -2.1,-5.7 -2.7,-8.7 -0.6,-3 -0.9,-6.2 -0.9,-9.3 0,-3.1 0.3,-6.3 0.9,-9.3 0.6,-3 1.5,-5.9 2.7,-8.7 1.2,-2.7 2.6,-5.4 4.3,-7.8 0.2,-0.3 0.1,-0.8 -0.2,-1 -0.3,-0.2 -0.8,-0.1 -1,0.2 -1.7,2.6 -3.2,5.3 -4.4,8.1 -1.2,2.9 -2.2,5.9 -2.8,8.9 -0.6,3.1 -1,6.4 -1,9.6 0,3.2 0.3,6.5 1,9.6 0.6,3.1 1.6,6.1 2.8,8.9 1.2,2.8 2.7,5.5 4.4,8.1 z"
       id="path82" /><path
       style="fill:#000000;fill-opacity:1"
       d="m 86.7,101.1 c -2.5,1.7 -5.1,3.1 -7.8,4.3 -2.8,1.2 -5.7,2.1 -8.7,2.7 -6.1,1.2 -12.5,1.2 -18.6,0 -3,-0.6 -5.9,-1.5 -8.7,-2.7 -2.7,-1.2 -5.4,-2.6 -7.8,-4.3 -0.3,-0.2 -0.8,-0.1 -1,0.2 -0.2,0.3 -0.1,0.8 0.2,1 2.5,1.7 5.3,3.2 8.1,4.4 2.9,1.2 5.9,2.2 8.9,2.8 3.1,0.6 6.4,1 9.6,1 3.2,0 6.5,-0.3 9.6,-1 3.1,-0.6 6.1,-1.6 8.9,-2.8 2.8,-1.2 5.5,-2.7 8.1,-4.4 0.3,-0.2 0.4,-0.7 0.2,-1 -0.2,-0.3 -0.6,-0.4 -1,-0.2 z"
       id="path84" /></g></svg>