<?xml version="1.0" encoding="UTF-8" standalone="no"?>
<svg
   xmlns:dc="http://purl.org/dc/elements/1.1/"
   xmlns:cc="http://creativecommons.org/ns#"
   xmlns:rdf="http://www.w3.org/1999/02/22-rdf-syntax-ns#"
   xmlns:svg="http://www.w3.org/2000/svg"
   xmlns="http://www.w3.org/2000/svg"
   xmlns:sodipodi="http://sodipodi.sourceforge.net/DTD/sodipodi-0.dtd"
   xmlns:inkscape="http://www.inkscape.org/namespaces/inkscape"
   version="1.1"
   id="svg2"
   xml:space="preserve"
   width="59.999958"
   height="54"
   viewBox="0 0 59.999958 54"
   inkscape:version="0.91 r13725"
   sodipodi:docname="responsive.svg"><sodipodi:namedview
     pagecolor="#ffffff"
     bordercolor="#666666"
     borderopacity="1"
     objecttolerance="10"
     gridtolerance="10"
     guidetolerance="10"
     inkscape:pageopacity="0"
     inkscape:pageshadow="2"
     inkscape:window-width="981"
     inkscape:window-height="568"
     id="namedview13"
     showgrid="false"
     inkscape:zoom="4.3703704"
     inkscape:cx="29.999979"
     inkscape:cy="27"
     inkscape:window-x="0"
     inkscape:window-y="0"
     inkscape:window-maximized="0"
     inkscape:current-layer="svg2" /><metadata
     id="metadata8"><rdf:RDF><cc:Work
         rdf:about=""><dc:format>image/svg+xml</dc:format><dc:type
           rdf:resource="http://purl.org/dc/dcmitype/StillImage" /><dc:title /></cc:Work></rdf:RDF></metadata><defs
     id="defs6" /><g
     id="g10"
     transform="matrix(1.3333333,0,0,-1.3333333,-1.9317733,81.423998)"><g
       id="g12"
       transform="scale(0.1,0.1)"><path
         d="m 445.738,475.68 -11.25,0 0,41.25 c 0,10.351 -8.398,18.75 -18.75,18.75 l -198.75,0 0,56.25 c 0,10.351 -8.398,18.75 -18.75,18.75 l -164.9997,0 c -10.3867,0 -18.75,-8.399 -18.75,-18.75 l 0,-255 c 0,-10.36 8.3633,-18.75 18.75,-18.75 l 33.75,0 0,-52.5 -26.25,0 c -2.0664,0 -3.75,-1.68 -3.75,-3.75 0,-18.641 15.082,-33.75 33.75,-33.75 l 243.7497,0 0,-3.75 c 0,-10.36 8.364,-18.75 18.75,-18.75 l 112.5,0 c 10.352,0 18.75,8.39 18.75,18.75 l 0,232.5 c 0,10.351 -8.398,18.75 -18.75,18.75 z M 21.9883,591.93 c 0,6.211 5.043,11.25 11.25,11.25 l 164.9997,0 c 6.211,0 11.25,-5.039 11.25,-11.25 l 0,-56.25 -15,0 0,26.25 c 0,2.07 -1.679,3.75 -3.75,3.75 l -149.9997,0 c -2.0664,0 -3.75,-1.68 -3.75,-3.75 l 0,-157.5 c 0,-2.078 1.6836,-3.75 3.75,-3.75 l 26.25,0 0,-15 -45,0 z m 164.9997,-33.75 0,-22.5 -101.2497,0 c -10.3867,0 -18.75,-8.399 -18.75,-18.75 l 0,-108.75 -22.5,0 0,150 z M 33.2383,325.68 c -6.207,0 -11.25,5.031 -11.25,11.25 l 0,41.25 45,0 0,-52.5 z m 281.2497,-90 -243.7497,0 c -13.1602,-0.121 -24.3672,9.492 -26.25,22.5 l 161.9217,0 c 1.559,-4.5 5.82,-7.5 10.578,-7.5 l 60,0 c 4.731,0 8.992,3 10.551,7.5 l 26.949,0 z m 0,30 -30,0 c -2.066,0 -3.75,-1.68 -3.75,-3.75 0,-2.078 -1.679,-3.75 -3.75,-3.75 l -60,0 c -2.066,0 -3.75,1.672 -3.75,3.75 0,2.07 -1.679,3.75 -3.75,3.75 l -134.9997,0 0,251.25 c 0,6.211 5.043,11.25 11.25,11.25 l 329.9997,0 c 6.211,0 11.25,-5.039 11.25,-11.25 l 0,-41.25 -15,0 0,33.75 c 0,2.07 -1.679,3.75 -3.75,3.75 l -314.9997,0 c -2.0664,0 -3.75,-1.68 -3.75,-3.75 l 0,-225 c 0,-2.078 1.6836,-3.75 3.75,-3.75 l 221.2497,0 z m 0,191.25 0,-168.75 -217.4997,0 0,217.5 307.4997,0 0,-30 -71.25,0 c -10.386,0 -18.75,-8.399 -18.75,-18.75 z m 142.5,-232.5 c 0,-6.219 -5.039,-11.25 -11.25,-11.25 l -112.5,0 c -6.207,0 -11.25,5.031 -11.25,11.25 l 0,33.75 135,0 z m 0,41.25 -135,0 0,191.25 c 0,6.211 5.043,11.25 11.25,11.25 l 112.5,0 c 6.211,0 11.25,-5.039 11.25,-11.25 z"
         style="fill:#000000;fill-opacity:1;fill-rule:nonzero;stroke:none"
         id="path14" /><path
         d="m 438.238,430.68 -97.5,0 c -2.066,0 -3.75,-1.68 -3.75,-3.75 l 0,-142.5 c 0,-2.078 1.684,-3.75 3.75,-3.75 l 97.5,0 c 2.071,0 3.75,1.672 3.75,3.75 l 0,142.5 c 0,2.07 -1.679,3.75 -3.75,3.75 z m -3.75,-142.5 -90,0 0,135 90,0 z"
         style="fill:#000000;fill-opacity:1;fill-rule:nonzero;stroke:none"
         id="path16" /><path
         d="m 389.488,228.18 c 6.684,0 10,8.082 5.282,12.808 -4.731,4.723 -12.782,1.364 -12.782,-5.308 0,-4.149 3.364,-7.5 7.5,-7.5 z"
         style="fill:#000000;fill-opacity:1;fill-rule:nonzero;stroke:none"
         id="path18" /><path
         d="m 407.34,443.801 c 5,0 7.5,6.051 3.949,9.609 -3.519,3.551 -9.57,1.02 -9.57,-3.98 0,-3.129 2.5,-5.629 5.621,-5.629 z"
         style="fill:#000000;fill-opacity:1;fill-rule:nonzero;stroke:none"
         id="path20" /><path
         d="m 369.84,445.68 15,0 c 5,0 5,7.5 0,7.5 l -15,0 c -5,0 -5,-7.5 0,-7.5 z"
         style="fill:#000000;fill-opacity:1;fill-rule:nonzero;stroke:none"
         id="path22" /><path
         d="m 115.738,576.93 c 6.684,0 10,8.082 5.282,12.808 -4.731,4.723 -12.782,1.364 -12.782,-5.308 0,-4.149 3.364,-7.5 7.5,-7.5 z"
         style="fill:#000000;fill-opacity:1;fill-rule:nonzero;stroke:none"
         id="path24" /></g></g></svg>